<svg width="160" height="160" viewBox="0 0 160 160" fill="none" xmlns="http://www.w3.org/2000/svg">
  <!-- cerchio di sfondo -->
  <circle cx="80" cy="80" r="80" fill="#F47730"/>
  <!-- handshake -->
  <path
    d="M63.8 56.5c2.7-2.7 7.1-2.7 9.8 0l6.9 6.9c1.2 1.2 3.1 1.2 4.2 0l4.1-4.1c2.7-2.7 7.1-2.7 9.8 0l6.9 6.9c2.7 2.7 2.7 7.1 0 9.8l-14 14c-3.7 3.7-9.6 3.7-13.3 0l-2.1-2.1-7 7c-3.7 3.7-9.6 3.7-13.3 0l-7.8-7.8c-3.7-3.7-3.7-9.6 0-13.3l15.7-15.7z"
    fill="white"/>
  <!-- pollice / gancio per rendere la forma più "mano" -->
  <path
    d="M97.2 74.3 90 81.5c-1.4 1.4-3.6 1.4-5 0l-5.4-5.4c-1.4-1.4-3.6-1.4-5 0l-9.5 9.5c-1.4 1.4-1.4 3.6 0 5l4.8 4.8c1.4 1.4 3.6 1.4 5 0l4.9-4.9 2.2 2.2c3.1 3.1 8.1 3.1 11.2 0l10-10c2.3-2.3 2.3-6.1 0-8.4l-1.2-1.2c-1.4-1.4-3.6-1.4-5 0z"
    fill="white"/>
</svg>
